<svg xmlns="http://www.w3.org/2000/svg" width="1440" height="900" viewBox="0 0 1440 900" role="img">
  <title>MAPA - editor</title>
  <desc>Editor linear de salas Dados fictícios, sem informação real de pacientes, profissionais ou instituição.</desc>
  <defs>
    <filter id="shadow" x="-15%" y="-15%" width="130%" height="130%"><feDropShadow dx="0" dy="18" stdDeviation="18" flood-color="#0f172a" flood-opacity=".13"/></filter>
    <style>.ui{font-family:Inter,Segoe UI,Arial,sans-serif;letter-spacing:0}</style>
  </defs>
  <rect width="1440" height="900" fill="#f7f8fb"/>
  <rect x="34" y="28" width="1372" height="824" rx="26" fill="#ffffff" filter="url(#shadow)"/>
  <rect x="34" y="28" width="1372" height="48" rx="26" fill="#f8fafc"/>
  <circle cx="72" cy="52" r="7" fill="#ef4444"/><circle cx="96" cy="52" r="7" fill="#f59e0b"/><circle cx="120" cy="52" r="7" fill="#22c55e"/>
  <rect x="174" y="42" width="412" height="20" rx="10" fill="#e2e8f0"/>
  <rect x="0" y="76" width="1440" height="824" rx="0" fill="#f7f8fb" stroke="#f7f8fb"/><rect x="64" y="106" width="1312" height="78" rx="18" fill="#ffffff" stroke="#e2e8f0"/><rect x="96" y="130" width="132" height="32" rx="16" fill="rgba(31,75,153,.12)" stroke="rgba(31,75,153,.12)"/><text x="162" y="151" class="ui" font-size="12" font-weight="800" fill="#1f4b99" text-anchor="middle">Fluxo Linear</text><text x="252" y="140" class="ui" font-size="24" font-weight="800" fill="#0f172a">Mapa das Salas</text><text x="252" y="162" class="ui" font-size="13" font-weight="600" fill="#5b6473">Visualização sequencial das salas cadastradas</text><rect x="1110" y="132" width="132" height="32" rx="16" fill="rgba(15,23,42,.06)" stroke="rgba(15,23,42,.06)"/><text x="1176" y="153" class="ui" font-size="12" font-weight="800" fill="#0f172a" text-anchor="middle">Modo: Editar</text><rect x="1256" y="128" width="124" height="36" rx="10" fill="#ffffff" stroke="#ffffff"/><text x="1318" y="151" class="ui" font-size="13" font-weight="800" fill="#0f172a" text-anchor="middle">Voltar a explorar</text><rect x="64" y="204" width="1312" height="62" rx="16" fill="#ffffff" stroke="#e2e8f0"/><rect x="88" y="218" width="127" height="34" rx="10" fill="#ffffff" stroke="#ffffff"/><text x="151" y="240" class="ui" font-size="13" font-weight="800" fill="#0f172a" text-anchor="middle">Adicionar filho</text><rect x="225" y="218" width="127" height="34" rx="10" fill="#ffffff" stroke="#ffffff"/><text x="288" y="240" class="ui" font-size="13" font-weight="800" fill="#0f172a" text-anchor="middle">Adicionar irmão</text><rect x="362" y="218" width="88" height="34" rx="10" fill="#ffffff" stroke="#ffffff"/><text x="406" y="240" class="ui" font-size="13" font-weight="800" fill="#0f172a" text-anchor="middle">Remover</text><rect x="460" y="218" width="141" height="34" rx="10" fill="#ffffff" stroke="#ffffff"/><text x="530" y="240" class="ui" font-size="13" font-weight="800" fill="#0f172a" text-anchor="middle">Colapsar/expandir</text><rect x="611" y="218" width="88" height="34" rx="10" fill="#ffffff" stroke="#ffffff"/><text x="655" y="240" class="ui" font-size="13" font-weight="800" fill="#0f172a" text-anchor="middle">Desfazer</text><rect x="709" y="218" width="88" height="34" rx="10" fill="#ffffff" stroke="#ffffff"/><text x="753" y="240" class="ui" font-size="13" font-weight="800" fill="#0f172a" text-anchor="middle">Refazer</text><rect x="807" y="218" width="88" height="34" rx="10" fill="#ffffff" stroke="#ffffff"/><text x="851" y="240" class="ui" font-size="13" font-weight="800" fill="#0f172a" text-anchor="middle">Salvar</text><rect x="905" y="218" width="113" height="34" rx="10" fill="#ffffff" stroke="#ffffff"/><text x="961" y="240" class="ui" font-size="13" font-weight="800" fill="#0f172a" text-anchor="middle">Exportar JSON</text><rect x="1028" y="218" width="113" height="34" rx="10" fill="#ffffff" stroke="#ffffff"/><text x="1084" y="240" class="ui" font-size="13" font-weight="800" fill="#0f172a" text-anchor="middle">Importar JSON</text><rect x="1204" y="220" width="128" height="30" rx="15" fill="#ecfdf5" stroke="#ecfdf5"/><text x="1268" y="240" class="ui" font-size="12" font-weight="800" fill="#166534" text-anchor="middle">Sincronizado</text><rect x="64" y="286" width="1312" height="520" rx="20" fill="#ffffff" stroke="#e2e8f0"/><line x1="170" y1="328" x2="170" y2="742" stroke="#3a6bdc" stroke-width="3" stroke-linecap="round"/><rect x="118" y="326" width="760" height="58" rx="14" fill="#ffffff" stroke="#dce5ef"/><rect x="118" y="326" width="6" height="58" rx="6" fill="#60a5fa" stroke="#60a5fa"/><text x="136" y="361" class="ui" font-size="13" font-weight="850" fill="#60a5fa">01</text><text x="184" y="351" class="ui" font-size="15" font-weight="800" fill="#0f172a">Hospital Estadual</text><text x="184" y="372" class="ui" font-size="12" font-weight="600" fill="#5b6473">Mapa linear das salas cadastradas</text><rect x="720" y="341" width="80" height="26" rx="13" fill="#f8fafc" stroke="#f8fafc"/><text x="760" y="359" class="ui" font-size="12" font-weight="800" fill="#0f172a" text-anchor="middle">+ Filho</text><rect x="180" y="398" width="760" height="58" rx="14" fill="#ffffff" stroke="#dce5ef"/><rect x="180" y="398" width="6" height="58" rx="6" fill="#38bdf8" stroke="#38bdf8"/><text x="198" y="433" class="ui" font-size="13" font-weight="850" fill="#38bdf8">02</text><text x="246" y="423" class="ui" font-size="15" font-weight="800" fill="#0f172a">Recepção</text><text x="246" y="444" class="ui" font-size="12" font-weight="600" fill="#5b6473">Acolhimento e registros</text><rect x="782" y="413" width="80" height="26" rx="13" fill="#f8fafc" stroke="#f8fafc"/><text x="822" y="431" class="ui" font-size="12" font-weight="800" fill="#0f172a" text-anchor="middle">+ Filho</text><rect x="180" y="470" width="760" height="58" rx="14" fill="#ffffff" stroke="#dce5ef"/><rect x="180" y="470" width="6" height="58" rx="6" fill="#c084fc" stroke="#c084fc"/><text x="198" y="505" class="ui" font-size="13" font-weight="850" fill="#c084fc">03</text><text x="246" y="495" class="ui" font-size="15" font-weight="800" fill="#0f172a">Triagem</text><text x="246" y="516" class="ui" font-size="12" font-weight="600" fill="#5b6473">Avaliação inicial de pacientes</text><rect x="782" y="485" width="80" height="26" rx="13" fill="#f8fafc" stroke="#f8fafc"/><text x="822" y="503" class="ui" font-size="12" font-weight="800" fill="#0f172a" text-anchor="middle">+ Filho</text><rect x="180" y="542" width="760" height="58" rx="14" fill="#ffffff" stroke="#dce5ef"/><rect x="180" y="542" width="6" height="58" rx="6" fill="#f59e0b" stroke="#f59e0b"/><text x="198" y="577" class="ui" font-size="13" font-weight="850" fill="#f59e0b">04</text><text x="246" y="567" class="ui" font-size="15" font-weight="800" fill="#0f172a">Sala Amarela</text><text x="246" y="588" class="ui" font-size="12" font-weight="600" fill="#5b6473">Cuidados intermediários</text><rect x="782" y="557" width="80" height="26" rx="13" fill="#f8fafc" stroke="#f8fafc"/><text x="822" y="575" class="ui" font-size="12" font-weight="800" fill="#0f172a" text-anchor="middle">+ Filho</text><rect x="180" y="614" width="760" height="58" rx="14" fill="#ffffff" stroke="#dce5ef"/><rect x="180" y="614" width="6" height="58" rx="6" fill="#ef4444" stroke="#ef4444"/><text x="198" y="649" class="ui" font-size="13" font-weight="850" fill="#ef4444">05</text><text x="246" y="639" class="ui" font-size="15" font-weight="800" fill="#0f172a">Sala Vermelha</text><text x="246" y="660" class="ui" font-size="12" font-weight="600" fill="#5b6473">Emergências críticas</text><rect x="782" y="629" width="80" height="26" rx="13" fill="#f8fafc" stroke="#f8fafc"/><text x="822" y="647" class="ui" font-size="12" font-weight="800" fill="#0f172a" text-anchor="middle">+ Filho</text><rect x="180" y="686" width="760" height="58" rx="14" fill="#ffffff" stroke="#dce5ef"/><rect x="180" y="686" width="6" height="58" rx="6" fill="#3b82f6" stroke="#3b82f6"/><text x="198" y="721" class="ui" font-size="13" font-weight="850" fill="#3b82f6">06</text><text x="246" y="711" class="ui" font-size="15" font-weight="800" fill="#0f172a">UTI</text><text x="246" y="732" class="ui" font-size="12" font-weight="600" fill="#5b6473">Cuidados intensivos</text><rect x="782" y="701" width="80" height="26" rx="13" fill="#f8fafc" stroke="#f8fafc"/><text x="822" y="719" class="ui" font-size="12" font-weight="800" fill="#0f172a" text-anchor="middle">+ Filho</text><rect x="1010" y="316" width="300" height="178" rx="12" fill="rgba(255,255,255,.92)" stroke="#dce5ef"/><text x="1034" y="354" class="ui" font-size="18" font-weight="800" fill="#0f172a">Histórico rápido</text><rect x="1034" y="386" width="224" height="26" rx="13" fill="rgba(15,23,42,.04)" stroke="rgba(15,23,42,.04)"/><text x="1146" y="404" class="ui" font-size="12" font-weight="800" fill="#5b6473" text-anchor="middle">09:12 · novo filho</text><rect x="1034" y="422" width="224" height="26" rx="13" fill="rgba(15,23,42,.04)" stroke="rgba(15,23,42,.04)"/><text x="1146" y="440" class="ui" font-size="12" font-weight="800" fill="#5b6473" text-anchor="middle">09:18 · salvar</text><rect x="1034" y="458" width="224" height="26" rx="13" fill="rgba(15,23,42,.04)" stroke="rgba(15,23,42,.04)"/><text x="1146" y="476" class="ui" font-size="12" font-weight="800" fill="#5b6473" text-anchor="middle">09:22 · importar JSON</text>
  <text x="1076" y="832" class="ui" font-size="11" fill="#8a98ab">Tela demonstrativa baseada no código do repositório - dados fictícios</text>
</svg>