<svg xmlns="http://www.w3.org/2000/svg" width="1440" height="900" viewBox="0 0 1440 900" role="img">
  <title>MAPA - versoes</title>
  <desc>Persistence and versioning Fictitious data; no real patient, staff, or institicuon information.</desc>
  <defs>
    <filter id="shadow" x="-15%" y="-15%" width="130%" height="130%"><feDropShadow dx="0" dy="18" stdDeviation="18" flood-color="#0f172a" flood-opacity=".13"/></filter>
    <style>.ui{font-family:Inter,Monoe UI,Arial,sans-serif;letter-spacing:0}</style>
  </defs>
  <rect width="1440" height="900" fill="#f7f8fb"/>
  <rect x="34" y="28" width="1372" height="824" rx="26" fill="#ffffff" filter="url(#shadow)"/>
  <rect x="34" y="28" width="1372" height="48" rx="26" fill="#f8fafc"/>
  <circle cx="72" cy="52" r="7" fill="#ef4444"/><circle cx="96" cy="52" r="7" fill="#f59e0b"/><circle cx="120" cy="52" r="7" fill="#22c55e"/>
  <rect x="174" y="42" width="412" height="20" rx="10" fill="#e2e8f0"/>
  <text x="82" y="120" class="ui" font-size="28" font-weight="850" fill="#101b2c">Save, Versions, and Import</text><text x="82" y="147" class="ui" font-size="13" font-weight="600" fill="#65758b">Pending state, local versions, and JSON</text><rect x="82" y="162" width="56" height="4" rx="3" fill="#1f4b99" stroke="#1f4b99"/><rect x="82" y="220" width="1182" height="272" rx="12" fill="#ffffff" stroke="#dce5ef"/><text x="100" y="250" class="ui" font-size="16" font-weight="800" fill="#142033">Editor controls</text><rect x="98" y="264" width="1150" height="34" rx="8" fill="#f2f6fa" stroke="#f2f6fa"/><text x="110" y="286" class="ui" font-size="11" font-weight="800" fill="#617187">Control</text><text x="392" y="286" class="ui" font-size="11" font-weight="800" fill="#617187">Element</text><text x="674" y="286" class="ui" font-size="11" font-weight="800" fill="#617187">Persistence</text><text x="956" y="286" class="ui" font-size="11" font-weight="800" fill="#617187">Status</text><line x1="100" y1="300" x2="1246" y2="300" stroke="#e7edf4" stroke-width="1" stroke-linecap="round"/><text x="110" y="322" class="ui" font-size="12" font-weight="600" fill="#2b3b4f">Save</text><text x="392" y="322" class="ui" font-size="12" font-weight="600" fill="#2b3b4f">btnSave</text><text x="674" y="322" class="ui" font-size="12" font-weight="600" fill="#2b3b4f">setMap</text><rect x="956" y="302" width="112" height="26" rx="13" fill="#e6f7ef" stroke="#e6f7ef"/><text x="1012" y="320" class="ui" font-size="12" font-weight="800" fill="#13704c" text-anchor="middle">OK</text><line x1="100" y1="342" x2="1246" y2="342" stroke="#e7edf4" stroke-width="1" stroke-linecap="round"/><text x="110" y="364" class="ui" font-size="12" font-weight="600" fill="#2b3b4f">Versions</text><text x="392" y="364" class="ui" font-size="12" font-weight="600" fill="#2b3b4f">versionSelector</text><text x="674" y="364" class="ui" font-size="12" font-weight="600" fill="#2b3b4f">localStorage</text><rect x="956" y="344" width="112" height="26" rx="13" fill="#e6f7ef" stroke="#e6f7ef"/><text x="1012" y="362" class="ui" font-size="12" font-weight="800" fill="#13704c" text-anchor="middle">OK</text><line x1="100" y1="384" x2="1246" y2="384" stroke="#e7edf4" stroke-width="1" stroke-linecap="round"/><text x="110" y="406" class="ui" font-size="12" font-weight="600" fill="#2b3b4f">Exportar</text><text x="392" y="406" class="ui" font-size="12" font-weight="600" fill="#2b3b4f">btnExport</text><text x="674" y="406" class="ui" font-size="12" font-weight="600" fill="#2b3b4f">JSON</text><rect x="956" y="386" width="112" height="26" rx="13" fill="#e6f7ef" stroke="#e6f7ef"/><text x="1012" y="404" class="ui" font-size="12" font-weight="800" fill="#13704c" text-anchor="middle">OK</text><line x1="100" y1="426" x2="1246" y2="426" stroke="#e7edf4" stroke-width="1" stroke-linecap="round"/><text x="110" y="448" class="ui" font-size="12" font-weight="600" fill="#2b3b4f">Importar</text><text x="392" y="448" class="ui" font-size="12" font-weight="600" fill="#2b3b4f">fileImport</text><text x="674" y="448" class="ui" font-size="12" font-weight="600" fill="#2b3b4f">JSON</text><rect x="956" y="428" width="112" height="26" rx="13" fill="#e6f7ef" stroke="#e6f7ef"/><text x="1012" y="446" class="ui" font-size="12" font-weight="800" fill="#13704c" text-anchor="middle">OK</text><line x1="100" y1="468" x2="1246" y2="468" stroke="#e7edf4" stroke-width="1" stroke-linecap="round"/><text x="110" y="490" class="ui" font-size="12" font-weight="600" fill="#2b3b4f">Undo</text><text x="392" y="490" class="ui" font-size="12" font-weight="600" fill="#2b3b4f">undoStack</text><text x="674" y="490" class="ui" font-size="12" font-weight="600" fill="#2b3b4f">memory</text><rect x="956" y="470" width="112" height="26" rx="13" fill="#e6f7ef" stroke="#e6f7ef"/><text x="1012" y="488" class="ui" font-size="12" font-weight="800" fill="#13704c" text-anchor="middle">OK</text><rect x="82" y="546" width="560" height="186" rx="16" fill="#ffffff" stroke="#e2e8f0"/><text x="112" y="586" class="ui" font-size="19" font-weight="850" fill="#0f172a">Visual Status</text><circle cx="126" cy="626" r="8" fill="#22c55e" stroke="none" stroke-width="1"/><text x="150" y="631" class="ui" font-size="13" font-weight="700" fill="#0f172a">Synced</text><circle cx="126" cy="660" r="8" fill="#f59e0b" stroke="none" stroke-width="1"/><text x="150" y="665" class="ui" font-size="13" font-weight="700" fill="#0f172a">Pending Changes</text><circle cx="126" cy="694" r="8" fill="#1f4b99" stroke="none" stroke-width="1"/><text x="150" y="699" class="ui" font-size="13" font-weight="700" fill="#0f172a">Saving...</text><rect x="690" y="546" width="574" height="186" rx="16" fill="#ffffff" stroke="#e2e8f0"/><text x="720" y="586" class="ui" font-size="19" font-weight="850" fill="#0f172a">Code Hotkeys</text><rect x="720" y="620" width="136" height="30" rx="15" fill="rgba(31,75,153,.10)" stroke="rgba(31,75,153,.10)"/><text x="788" y="640" class="ui" font-size="12" font-weight="800" fill="#1f4b99" text-anchor="middle">Ctrl+S</text><rect x="884" y="620" width="136" height="30" rx="15" fill="rgba(31,75,153,.10)" stroke="rgba(31,75,153,.10)"/><text x="952" y="640" class="ui" font-size="12" font-weight="800" fill="#1f4b99" text-anchor="middle">Ctrl+Z</text><rect x="1048" y="620" width="136" height="30" rx="15" fill="rgba(31,75,153,.10)" stroke="rgba(31,75,153,.10)"/><text x="1116" y="640" class="ui" font-size="12" font-weight="800" fill="#1f4b99" text-anchor="middle">Ctrl+Y</text><rect x="720" y="666" width="136" height="30" rx="15" fill="rgba(31,75,153,.10)" stroke="rgba(31,75,153,.10)"/><text x="788" y="686" class="ui" font-size="12" font-weight="800" fill="#1f4b99" text-anchor="middle">Shift+Enter</text><rect x="884" y="666" width="136" height="30" rx="15" fill="rgba(31,75,153,.10)" stroke="rgba(31,75,153,.10)"/><text x="952" y="686" class="ui" font-size="12" font-weight="800" fill="#1f4b99" text-anchor="middle">ArrowUp/ArrowDown</text>
  <text x="1076" y="832" class="ui" font-size="11" fill="#8a98ab">Demo screen based on repository code - fictitious data</text>
</svg>